<?xml version="1.0" standalone="no"?>
<!DOCTYPE svg PUBLIC "-//W3C//DTD SVG 20010904//EN"
 "http://www.w3.org/TR/2001/REC-SVG-20010904/DTD/svg10.dtd">
<svg version="1.0" xmlns="http://www.w3.org/2000/svg"
 width="1040.000000pt" height="1040.000000pt" viewBox="0 0 1040.000000 1040.000000"
 preserveAspectRatio="xMidYMid meet">
<metadata>
Created by potrace 1.14, written by Peter Selinger 2001-2017
</metadata>
<g transform="translate(0.000000,1040.000000) scale(0.100000,-0.100000)"
fill="#000000" stroke="none">
<path d="M1865 9789 c-652 -79 -1177 -497 -1396 -1111 -124 -348 -124 -758 0
-1106 65 -182 166 -364 275 -497 23 -27 47 -58 55 -67 11 -15 2 -38 -73 -175
-351 -649 -599 -1453 -700 -2269 -83 -668 65 -1391 404 -1980 154 -267 298
-454 524 -680 185 -185 311 -288 516 -423 168 -111 526 -295 720 -371 859
-335 1872 -505 3015 -504 389 0 599 10 972 44 751 70 1476 236 2067 474 316
127 695 344 936 536 135 107 403 375 510 510 536 676 787 1555 684 2394 -102
826 -349 1622 -711 2289 l-75 137 28 36 c154 191 265 391 328 584 130 401 95
882 -91 1253 -268 538 -766 874 -1372 929 -488 44 -1031 -172 -1359 -541 l-62
-69 -128 45 c-562 200 -1150 303 -1732 303 -583 0 -1187 -107 -1748 -308
l-113 -41 -36 42 c-243 280 -594 480 -963 547 -134 24 -358 33 -475 19z m350
-751 c115 -19 246 -74 359 -151 l59 -40 -52 -31 c-29 -17 -116 -73 -193 -123
-399 -264 -748 -580 -1059 -955 -40 -49 -75 -88 -79 -88 -8 0 -52 87 -78 155
-59 152 -73 367 -34 525 44 182 133 341 259 461 224 215 504 300 818 247z
m6333 -4 c172 -33 331 -121 467 -259 108 -109 171 -210 219 -356 58 -173 64
-381 16 -544 -23 -76 -89 -225 -100 -225 -4 0 -39 39 -79 88 -360 435 -756
775 -1270 1089 l-33 21 62 42 c215 146 458 195 718 144z m-2973 -4097 c430
-71 786 -204 1101 -413 183 -121 296 -278 355 -490 43 -159 37 -618 -12 -874
-74 -382 -263 -736 -543 -1015 -278 -276 -638 -458 -1021 -516 -130 -20 -415
-17 -540 5 -611 109 -1111 493 -1381 1061 -146 308 -201 606 -192 1041 4 183
9 232 27 299 56 209 175 373 354 489 364 237 754 372 1237 430 81 9 529 -3
615 -17z"/>
<path d="M4770 4690 c-58 -12 -87 -27 -130 -66 -64 -58 -84 -105 -85 -194 0
-126 12 -143 264 -352 119 -99 239 -191 266 -204 69 -33 161 -33 230 0 28 13
144 102 260 198 254 211 270 232 270 352 0 60 -5 91 -19 120 -27 53 -80 104
-135 130 -44 20 -61 21 -466 23 -231 0 -436 -2 -455 -7z"/>
<path d="M5160 3471 c-48 -15 -89 -41 -109 -69 -11 -16 -36 -84 -56 -153 -53
-183 -112 -298 -199 -385 -55 -55 -85 -76 -131 -93 -189 -71 -363 -45 -471 71
-60 65 -93 138 -104 237 -13 115 -43 162 -122 196 -102 42 -219 -19 -249 -128
-21 -80 11 -248 71 -374 130 -267 368 -414 670 -415 188 0 345 44 484 137 69
46 170 146 217 215 19 27 36 50 39 50 3 0 16 -17 29 -38 163 -251 483 -396
798 -361 171 19 299 78 419 192 128 121 212 287 234 463 18 143 -14 217 -112
259 -87 36 -190 -3 -235 -90 -9 -16 -20 -65 -25 -109 -27 -247 -219 -382 -473
-335 -208 38 -331 180 -424 489 -22 72 -48 146 -58 163 -33 56 -134 97 -193
78z"/>
</g>
</svg>
