<svg width="178" height="40" viewBox="0 0 178 40" fill="none" xmlns="http://www.w3.org/2000/svg">
<path d="M16 12.15C16 13.3435 15.5259 14.4881 14.682 15.332C13.8381 16.1759 12.6935 16.65 11.5 16.65C10.3065 16.65 9.16193 16.1759 8.31802 15.332C7.47411 14.4881 7 13.3435 7 12.15C7 10.9566 7.47411 9.81196 8.31802 8.96805C9.16193 8.12414 10.3065 7.65003 11.5 7.65003C12.6935 7.65003 13.8381 8.12414 14.682 8.96805C15.5259 9.81196 16 10.9566 16 12.15ZM33 12.15C33 12.741 32.8836 13.3261 32.6575 13.8721C32.4313 14.4181 32.0998 14.9141 31.682 15.332C31.2641 15.7499 30.768 16.0813 30.2221 16.3075C29.6761 16.5336 29.0909 16.65 28.5 16.65C27.9091 16.65 27.3239 16.5336 26.7779 16.3075C26.232 16.0813 25.7359 15.7499 25.318 15.332C24.9002 14.9141 24.5687 14.4181 24.3425 13.8721C24.1164 13.3261 24 12.741 24 12.15C24 10.9566 24.4741 9.81196 25.318 8.96805C26.1619 8.12414 27.3065 7.65003 28.5 7.65003C29.6935 7.65003 30.8381 8.12414 31.682 8.96805C32.5259 9.81196 33 10.9566 33 12.15Z" fill="#92400E"/>
<path d="M34.002 22.72V22.694C34.0002 22.1622 33.9499 21.6317 33.852 21.109C33.543 19.037 32.596 15.353 29.689 12.371C25.517 8.09103 20.001 8.37103 20.001 8.37103C20.001 8.37103 14.485 8.09103 10.312 12.371C7.406 15.353 6.46 19.037 6.15 21.11C6.0506 21.6409 6.00039 22.1799 6 22.72C5.99956 24.3492 6.45631 25.9458 7.3183 27.3282C8.18028 28.7106 9.41291 29.8234 10.876 30.54C10.876 30.54 14 32.37 20 32.37C26 32.37 29.125 30.54 29.125 30.54C30.5882 29.8236 31.821 28.7109 32.683 27.3284C33.545 25.9459 34.0017 24.3492 34.001 22.72H34.002Z" fill="#B45309"/>
<path d="M10.313 12.371C11.1337 11.5289 12.0665 10.8038 13.085 10.216C12.6284 9.84124 12.0539 9.64023 11.4632 9.64863C10.8726 9.65703 10.304 9.87429 9.85828 10.2619C9.41254 10.6495 9.11846 11.1825 9.02817 11.7662C8.93787 12.35 9.0572 12.9469 9.36499 13.451C9.65499 13.084 9.96999 12.723 10.312 12.371H10.313ZM29.69 12.371C30.031 12.722 30.346 13.083 30.636 13.449C30.9431 12.9449 31.0619 12.3482 30.9714 11.7649C30.8808 11.1815 30.5867 10.649 30.1412 10.2617C29.6957 9.87433 29.1274 9.65717 28.5371 9.64864C27.9468 9.6401 27.3725 9.84074 26.916 10.215C27.9349 10.803 28.868 11.5285 29.689 12.371H29.69ZM15 23.703C15 22.949 15.373 22.248 15.988 21.848C17.18 21.0663 18.5745 20.6498 20 20.6498C21.4255 20.6498 22.8199 21.0663 24.012 21.848C24.627 22.248 25 22.948 25 23.703V24.443C25 27.32 22.761 29.65 20 29.65C17.239 29.65 15 27.319 15 24.443V23.703Z" fill="#FDBA74"/>
<path d="M15 18.619C15 18.3538 15.1054 18.0995 15.2929 17.9119C15.4804 17.7244 15.7348 17.619 16 17.619C16.2652 17.619 16.5196 17.7244 16.7071 17.9119C16.8946 18.0995 17 18.3538 17 18.619V19.619C17 19.8842 16.8946 20.1386 16.7071 20.3261C16.5196 20.5137 16.2652 20.619 16 20.619C15.7348 20.619 15.4804 20.5137 15.2929 20.3261C15.1054 20.1386 15 19.8842 15 19.619V18.619ZM23 18.619C23 18.3538 23.1054 18.0995 23.2929 17.9119C23.4804 17.7244 23.7348 17.619 24 17.619C24.2652 17.619 24.5196 17.7244 24.7071 17.9119C24.8946 18.0995 25 18.3538 25 18.619V19.619C25 19.8842 24.8946 20.1386 24.7071 20.3261C24.5196 20.5137 24.2652 20.619 24 20.619C23.7348 20.619 23.4804 20.5137 23.2929 20.3261C23.1054 20.1386 23 19.8842 23 19.619V18.619Z" fill="#451A03"/>
<path d="M19.526 23.47L18.512 22.636C18.3995 22.5422 18.3186 22.4161 18.2801 22.2747C18.2417 22.1334 18.2475 21.9837 18.297 21.8458C18.3464 21.7079 18.437 21.5885 18.5564 21.5038C18.6759 21.4191 18.8185 21.3731 18.965 21.372H21.039C21.186 21.3719 21.3295 21.4173 21.4497 21.5018C21.5699 21.5864 21.6611 21.7061 21.7107 21.8445C21.7603 21.9829 21.7659 22.1332 21.7267 22.2749C21.6876 22.4166 21.6056 22.5427 21.492 22.636L20.479 23.469C20.3448 23.5795 20.1763 23.6399 20.0025 23.6399C19.8287 23.6399 19.6602 23.5805 19.526 23.47ZM20 24.65C20.1135 24.6496 20.2237 24.6879 20.3125 24.7586C20.4012 24.8294 20.4632 24.9283 20.488 25.039C20.572 25.376 20.684 25.784 20.915 26.112C21.127 26.414 21.441 26.65 22 26.65C22.654 26.65 23 26.116 23 25.65C23 25.5174 23.0527 25.3902 23.1464 25.2965C23.2402 25.2027 23.3674 25.15 23.5 25.15C23.6326 25.15 23.7598 25.2027 23.8536 25.2965C23.9473 25.3902 24 25.5174 24 25.65C24 26.518 23.346 27.65 22 27.65C21.075 27.65 20.472 27.22 20.097 26.688C20.0631 26.6398 20.0307 26.5904 20 26.54C19.97 26.59 19.937 26.64 19.903 26.688C19.528 27.22 18.925 27.65 18 27.65C16.654 27.65 16 26.518 16 25.65C16 25.5174 16.0527 25.3902 16.1464 25.2965C16.2402 25.2027 16.3674 25.15 16.5 25.15C16.6326 25.15 16.7598 25.2027 16.8536 25.2965C16.9473 25.3902 17 25.5174 17 25.65C17 26.116 17.346 26.65 18 26.65C18.56 26.65 18.873 26.414 19.085 26.112C19.316 25.784 19.428 25.376 19.512 25.039C19.5309 24.9584 19.5693 24.8837 19.6239 24.8215C19.6785 24.7592 19.7476 24.7113 19.825 24.682C19.8809 24.6609 19.9402 24.6501 20 24.65Z" fill="#451A03"/>
<path d="M40 27.205V13.705H47.79C49.4367 13.705 50.4667 14.045 50.88 14.725C51.2933 15.3983 51.5 16.1283 51.5 16.915C51.5 17.7017 51.3233 18.4017 50.97 19.015C50.6233 19.6217 50.0533 19.9383 49.26 19.965C50.0733 20.0117 50.7033 20.3483 51.15 20.975C51.5967 21.595 51.82 22.3817 51.82 23.335C51.82 24.4283 51.6133 25.3483 51.2 26.095C50.7933 26.835 49.7567 27.205 48.09 27.205H40ZM43.41 24.895H47.24C47.7133 24.895 48.0267 24.7417 48.18 24.435C48.34 24.1283 48.42 23.645 48.42 22.985C48.42 22.3517 48.33 21.8717 48.15 21.545C47.97 21.2183 47.6033 21.055 47.05 21.055H43.41V24.895ZM43.41 18.995H46.83C47.3233 18.995 47.6533 18.8517 47.82 18.565C47.9867 18.2783 48.07 17.8917 48.07 17.405C48.07 16.945 47.9967 16.5983 47.85 16.365C47.7033 16.125 47.3967 16.005 46.93 16.005H43.41V18.995Z" fill="#78350F"/>
<path d="M59.4333 27.325C57.1933 27.325 55.6233 26.785 54.7233 25.705C53.8299 24.6183 53.3833 23.1417 53.3833 21.275C53.3833 19.3617 53.8333 17.8783 54.7333 16.825C55.6333 15.765 57.18 15.235 59.3733 15.235C61.62 15.235 63.1733 15.7717 64.0333 16.845C64.9 17.9183 65.3333 19.3917 65.3333 21.265C65.3333 21.6383 65.3099 21.9717 65.2633 22.265H56.3233V20.235H62.1233L62.0033 20.535C62.0033 19.395 61.77 18.5883 61.3033 18.115C60.8433 17.6417 60.2 17.405 59.3733 17.405C58.5599 17.405 57.9 17.6617 57.3933 18.175C56.8866 18.6883 56.6333 19.7217 56.6333 21.275C56.6333 22.795 56.8833 23.8217 57.3833 24.355C57.8899 24.8883 58.5733 25.155 59.4333 25.155V27.325ZM59.4333 25.155C59.9333 25.155 60.3466 25.0883 60.6733 24.955C61 24.8217 61.26 24.5983 61.4533 24.285C61.6533 23.9717 61.8233 23.6017 61.9633 23.175L64.9733 24.025C64.8266 24.805 64.5066 25.435 64.0133 25.915C63.5266 26.395 62.9366 26.7517 62.2433 26.985C61.5566 27.2117 60.6199 27.325 59.4333 27.325V25.155Z" fill="#78350F"/>
<path d="M71.3641 27.335C70.8974 27.335 70.4374 27.3083 69.9841 27.255C69.5374 27.2017 69.1174 27.1017 68.7241 26.955C68.3307 26.8017 67.9841 26.5883 67.6841 26.315C67.3841 26.0417 67.1474 25.6883 66.9741 25.255C66.8074 24.8217 66.7241 24.2917 66.7241 23.665C66.7241 23.0583 66.8074 22.5483 66.9741 22.135C67.1474 21.715 67.3807 21.3717 67.6741 21.105C67.9674 20.8383 68.3074 20.6317 68.6941 20.485C69.0807 20.3383 69.4941 20.2383 69.9341 20.185C70.3741 20.125 70.8207 20.095 71.2741 20.095H75.0141V19.635C75.0141 19.095 74.9074 18.6683 74.6941 18.355C74.4874 18.0417 74.2007 17.8217 73.8341 17.695C73.4741 17.5617 73.0674 17.495 72.6141 17.495C72.2007 17.495 71.8241 17.5583 71.4841 17.685C71.1441 17.8117 70.8574 18.0183 70.6241 18.305C70.3974 18.5917 70.2374 18.975 70.1441 19.455L66.8541 18.535C66.9741 17.9417 67.1941 17.4383 67.5141 17.025C67.8407 16.605 68.2541 16.265 68.7541 16.005C69.2607 15.7383 69.8374 15.545 70.4841 15.425C71.1374 15.2983 71.8441 15.235 72.6041 15.235C73.7974 15.235 74.8274 15.3783 75.6941 15.665C76.5607 15.9517 77.2274 16.4283 77.6941 17.095C78.1607 17.7617 78.3941 18.6683 78.3941 19.815V27.205H75.5941L75.3041 25.845C75.2241 26.025 75.0741 26.205 74.8541 26.385C74.6341 26.5583 74.3507 26.7183 74.0041 26.865C73.6641 27.005 73.2707 27.1183 72.8241 27.205C72.3841 27.2917 71.8974 27.335 71.3641 27.335ZM72.1241 25.225C72.4507 25.225 72.7741 25.195 73.0941 25.135C73.4207 25.075 73.7174 24.9883 73.9841 24.875C74.2574 24.7617 74.4841 24.6283 74.6641 24.475C74.8441 24.315 74.9607 24.1417 75.0141 23.955L75.0941 21.955H72.0641C71.7974 21.955 71.5474 21.975 71.3141 22.015C71.0807 22.0483 70.8741 22.1217 70.6941 22.235C70.5207 22.3483 70.3841 22.5117 70.2841 22.725C70.1841 22.9383 70.1341 23.2183 70.1341 23.565C70.1341 23.9183 70.1874 24.205 70.2941 24.425C70.4074 24.6383 70.5574 24.805 70.7441 24.925C70.9374 25.0383 71.1507 25.1183 71.3841 25.165C71.6241 25.205 71.8707 25.225 72.1241 25.225Z" fill="#78350F"/>
<path d="M87.8648 21.195C87.8648 19.7017 87.6948 18.725 87.3548 18.265C87.0148 17.7983 86.5415 17.565 85.9348 17.565C85.2282 17.565 84.6682 17.8117 84.2548 18.305C83.8415 18.7917 83.6348 19.3517 83.6348 19.985L82.3448 19.215C82.3448 18.095 82.7915 17.155 83.6848 16.395C84.5782 15.6283 85.7482 15.245 87.1948 15.245C88.7615 15.245 89.8248 15.7283 90.3848 16.695C90.9449 17.655 91.2249 19.155 91.2249 21.195H87.8648ZM80.2848 27.205V15.355H82.8848L83.6448 17.405V27.205H80.2848Z" fill="#78350F"/>
<path d="M93.195 27.205V15.355H95.805L96.565 17.135V27.205H93.195ZM100.235 27.205V20.555C100.235 19.4683 100.105 18.6983 99.845 18.245C99.585 17.7917 99.1683 17.565 98.595 17.565C97.9883 17.565 97.4917 17.8217 97.105 18.335C96.725 18.8483 96.535 19.6217 96.535 20.655L94.755 19.945C94.755 18.8183 95.2483 17.755 96.235 16.755C97.2217 15.755 98.3817 15.255 99.715 15.255C101.262 15.255 102.295 15.755 102.815 16.755C103.335 17.755 103.595 18.9317 103.595 20.285V27.205H100.235ZM107.235 27.205V20.555C107.235 19.4683 107.112 18.6983 106.865 18.245C106.618 17.7917 106.205 17.565 105.625 17.565C105.018 17.565 104.525 17.8217 104.145 18.335C103.765 18.8483 103.575 19.6217 103.575 20.655L101.785 19.945C101.785 18.8517 102.278 17.7983 103.265 16.785C104.252 15.765 105.415 15.255 106.755 15.255C108.295 15.255 109.318 15.755 109.825 16.755C110.338 17.7483 110.595 18.925 110.595 20.285V27.205H107.235Z" fill="#78350F"/>
<path d="M118.32 27.325C116.08 27.325 114.51 26.785 113.61 25.705C112.717 24.6183 112.27 23.1417 112.27 21.275C112.27 19.3617 112.72 17.8783 113.62 16.825C114.52 15.765 116.067 15.235 118.26 15.235C120.507 15.235 122.06 15.7717 122.92 16.845C123.787 17.9183 124.22 19.3917 124.22 21.265C124.22 21.6383 124.197 21.9717 124.15 22.265H115.21V20.235H121.01L120.89 20.535C120.89 19.395 120.657 18.5883 120.19 18.115C119.73 17.6417 119.087 17.405 118.26 17.405C117.447 17.405 116.787 17.6617 116.28 18.175C115.773 18.6883 115.52 19.7217 115.52 21.275C115.52 22.795 115.77 23.8217 116.27 24.355C116.777 24.8883 117.46 25.155 118.32 25.155V27.325ZM118.32 25.155C118.82 25.155 119.233 25.0883 119.56 24.955C119.887 24.8217 120.147 24.5983 120.34 24.285C120.54 23.9717 120.71 23.6017 120.85 23.175L123.86 24.025C123.713 24.805 123.393 25.435 122.9 25.915C122.413 26.395 121.823 26.7517 121.13 26.985C120.443 27.2117 119.507 27.325 118.32 27.325V25.155Z" fill="#78350F"/>
<path d="M125.871 27.205V15.355H128.471L129.231 17.355V27.205H125.871ZM133.601 27.205V20.925C133.601 19.6117 133.441 18.7217 133.121 18.255C132.801 17.7883 132.307 17.555 131.641 17.555C130.941 17.555 130.344 17.8417 129.851 18.415C129.364 18.9817 129.121 19.7183 129.121 20.625L127.491 19.865C127.491 18.8183 127.991 17.7883 128.991 16.775C129.991 15.755 131.297 15.245 132.911 15.245C134.437 15.245 135.494 15.765 136.081 16.805C136.667 17.8383 136.961 19.195 136.961 20.875V27.205H133.601Z" fill="#78350F"/>
<path d="M144.621 27.355C143.568 27.355 142.674 27.135 141.941 26.695C141.214 26.2483 140.851 25.445 140.851 24.285V17.665H138.141V15.355H140.851V12.645H144.221V15.355H147.861V17.665H144.221V23.545C144.221 24.1917 144.354 24.615 144.621 24.815C144.894 25.0083 145.278 25.105 145.771 25.105C146.264 25.105 146.748 25.0217 147.221 24.855V27.075C146.394 27.2617 145.528 27.355 144.621 27.355Z" fill="#78350F"/>
<path d="M154.989 27.305C152.816 27.305 151.266 26.7817 150.339 25.735C149.413 24.6817 148.949 23.1783 148.949 21.225C148.949 19.2783 149.413 17.7917 150.339 16.765C151.266 15.7317 152.816 15.215 154.989 15.215C157.156 15.215 158.699 15.7317 159.619 16.765C160.546 17.7917 161.009 19.2783 161.009 21.225C161.009 23.1783 160.546 24.6817 159.619 25.735C158.699 26.7817 157.156 27.305 154.989 27.305ZM154.989 25.025C155.763 25.025 156.399 24.7783 156.899 24.285C157.399 23.7917 157.649 22.7783 157.649 21.245C157.649 19.7183 157.399 18.7117 156.899 18.225C156.399 17.7383 155.763 17.495 154.989 17.495C154.209 17.495 153.569 17.7383 153.069 18.225C152.569 18.7117 152.319 19.7183 152.319 21.245C152.319 22.7783 152.569 23.7917 153.069 24.285C153.569 24.7783 154.209 25.025 154.989 25.025Z" fill="#78350F"/>
<path d="M170.228 21.195C170.228 19.7017 170.058 18.725 169.718 18.265C169.378 17.7983 168.905 17.565 168.298 17.565C167.591 17.565 167.031 17.8117 166.618 18.305C166.205 18.7917 165.998 19.3517 165.998 19.985L164.708 19.215C164.708 18.095 165.155 17.155 166.048 16.395C166.941 15.6283 168.111 15.245 169.558 15.245C171.125 15.245 172.188 15.7283 172.748 16.695C173.308 17.655 173.588 19.155 173.588 21.195H170.228ZM162.648 27.205V15.355H165.248L166.008 17.405V27.205H162.648Z" fill="#78350F"/>
</svg>
